# xmcd
#
# Track frame offsets:
#	150
#	26126
#	81032
#	113274
#	153715
#	186931
#
# Disc length: 2699 seconds
#
# Revision: 1
# Processed by: cddbd v1.5.2PL0 Copyright (c) Steve Scherf et al.
# Submitted via: audiograbber 1.83.01
#
DISCID=410a8906
DTITLE=Grateful Dead - 80-01-13 Oakland Coliseum Arena, Oakland CA
DYEAR=1900
DGENRE=
TTITLE0=Jack Straw
TTITLE1=Franklin's Tower
TTITLE2=New Minglewood Blues
TTITLE3=Tennessee Jed
TTITLE4=Looks Like Rain
TTITLE5=Don't Ease Me In
EXTD=
EXTT0=
EXTT1=
EXTT2=
EXTT3=
EXTT4=
EXTT5=
PLAYORDER=
